<?xml version="1.0" encoding="UTF-8"?>
<svg width="200px" height="29px" viewBox="0 0 200 29" version="1.1" xmlns="http://www.w3.org/2000/svg" xmlns:xlink="http://www.w3.org/1999/xlink">
    <title>Spectero Logo</title>
    <desc>Spectero logo.</desc>
    <defs></defs>
    <g id="Page-1" stroke="none" stroke-width="1" fill="none" fill-rule="evenodd">
        <g id="Artboard-Copy-2" transform="translate(-220.000000, -140.000000)">
            <g id="Logo/Black" transform="translate(220.000000, 140.000000)">
                <path d="M0.144868897,24.418779 L3.25812939,19.8168654 C4.28291609,20.9386297 5.51847899,21.8508942 6.96485516,22.5536862 C8.41123132,23.2564783 9.99054663,23.6078691 11.7028485,23.6078691 C13.1946266,23.6078691 14.336144,23.3139172 15.127435,22.7260046 C15.918726,22.138092 16.3143656,21.4049016 16.3143656,20.5264115 C16.3143656,19.9587718 16.0938452,19.468852 15.6527977,19.0566374 C15.2117503,18.6444228 14.6345057,18.3268196 13.9210466,18.1038183 C13.2075875,17.880817 12.3936077,17.6443039 11.4790829,17.3942721 C10.564558,17.1442403 9.62734627,16.9077273 8.66741949,16.684726 C7.7074927,16.4617247 6.77028095,16.137364 5.85575611,15.7116341 C4.94123127,15.2859043 4.12725151,14.7926058 3.41379241,14.2317236 C2.70033331,13.6708415 2.1230887,12.9106211 1.68204126,11.9510396 C1.24099382,10.9914581 1.02047341,9.8899832 1.02047341,8.64658184 C1.02047341,6.26790097 1.93822748,4.27105537 3.77376316,2.65598512 C5.60929883,1.04091487 8.05123811,0.233391862 11.0996542,0.233391862 C15.3544649,0.233391862 18.8114466,1.51731966 21.4707033,4.08521378 L18.318527,8.48439986 C17.2677963,7.48427268 16.0679059,6.73080979 14.7188196,6.22398858 C13.3697333,5.71716737 11.9947236,5.46376057 10.5937494,5.46376057 C9.41329891,5.46376057 8.49230189,5.71040986 7.83073073,6.20371583 C7.16915957,6.69702181 6.83837895,7.36263701 6.83837895,8.20058141 C6.83837895,8.71416023 7.05565642,9.1601562 7.49021786,9.5385827 C7.92477931,9.91700921 8.50202392,10.2109611 9.22196901,10.4204472 C9.9419141,10.6299333 10.7591368,10.8596888 11.6736616,11.1097206 C12.5881865,11.3597524 13.5189123,11.5996442 14.4658671,11.8294031 C15.4128219,12.0591621 16.3435478,12.393659 17.2580727,12.8329041 C18.1725975,13.2721491 18.9898202,13.7789627 19.7097653,14.3533601 C20.4297104,14.9277575 21.006955,15.6947354 21.4415164,16.6543169 C21.8760779,17.6138984 22.0933553,18.7086157 22.0933553,19.9385019 C22.0933553,22.5874874 21.1820872,24.7329983 19.3595235,26.375099 C17.5369598,28.0171997 14.9069296,28.8382378 11.4693539,28.8382378 C6.74755191,28.8382378 2.97276131,27.3650996 0.144868897,24.418779 Z M25.8681837,28.3314191 L25.8681837,0.638846801 L38.3017678,0.638846801 C39.702742,0.638846801 40.9772203,0.875359817 42.1252408,1.34839294 C43.2732614,1.82142607 44.2137161,2.46338997 44.9466331,3.2743039 C45.6795502,4.08521783 46.243823,5.02789114 46.6394685,6.1023521 C47.035114,7.17681306 47.2329338,8.32896932 47.2329338,9.55885545 C47.2329338,10.7752263 47.035114,11.9172463 46.6394685,12.9849497 C46.243823,14.052653 45.6763073,14.9953263 44.9369042,15.8129979 C44.1975011,16.6306694 43.2570464,17.2760121 42.1155119,17.7490452 C40.9739773,18.2220783 39.702742,18.4585914 38.3017678,18.4585914 L31.5304262,18.4585914 L31.5304262,28.3314191 L25.8681837,28.3314191 Z M50.7742676,28.3314191 L50.7742676,0.638846801 L69.5900357,0.638846801 L69.5900357,5.82867002 L56.4365101,5.82867002 L56.4365101,11.6469484 L69.2981675,11.6469484 L69.2981675,16.8367716 L56.4365101,16.8367716 L56.4365101,23.1415959 L69.5900357,23.1415959 L69.5900357,28.3314191 L50.7742676,28.3314191 Z M72.7227541,14.5054057 C72.7227541,11.7077526 73.3453999,9.2142297 74.5907104,7.02476208 C75.8360208,4.83529447 77.5353251,3.14591578 79.6886744,1.95657535 C81.8420237,0.767234918 84.2482905,0.172573622 86.9075472,0.172573622 C88.3085214,0.172573622 89.6089432,0.358405277 90.8088517,0.730074162 C92.0087602,1.10174305 93.0529892,1.61531417 93.9415701,2.27080293 C94.830151,2.92629169 95.6019724,3.63583074 96.2570576,4.39944136 C96.9121427,5.16305198 97.4861444,6.01112007 97.9790798,6.9436711 L93.1146103,9.43721897 C92.543843,8.274909 91.6941908,7.31534191 90.5656282,6.5584889 C89.4370657,5.8016359 88.2177175,5.42321508 86.9075472,5.42321508 C84.4817862,5.42321508 82.4808878,6.28141945 80.9047918,7.99785394 C79.3286958,9.71428843 78.5406596,11.8834507 78.5406596,14.5054057 C78.5406596,17.1273607 79.3286958,19.2999017 80.9047918,21.0230938 C82.4808878,22.7462859 84.4817862,23.6078691 86.9075472,23.6078691 C88.2177175,23.6078691 89.4370657,23.2260695 90.5656282,22.4624589 C91.6941908,21.6988483 92.543843,20.7359024 93.1146103,19.5735924 L97.9790798,22.0265948 C97.4731724,22.9591458 96.8991708,23.8072139 96.2570576,24.5708246 C95.6149444,25.3344352 94.8463659,26.047353 93.951299,26.7095994 C93.0562322,27.3718457 92.0087602,27.8921744 90.8088517,28.2706009 C89.6089432,28.6490274 88.3085214,28.8382378 86.9075472,28.8382378 C84.9228337,28.8382378 83.058139,28.486847 81.3134072,27.7840549 C79.5686754,27.0812629 78.0639479,26.1115595 76.7991795,24.8749158 C75.5344111,23.638272 74.5388263,22.1245887 73.8123952,20.3338204 C73.0859642,18.5430522 72.7227541,16.6002667 72.7227541,14.5054057 Z M31.5304262,13.2687681 L31.5304262,5.82867002 L37.5039948,5.82867002 C38.6455293,5.82867002 39.589227,6.16654575 40.335116,6.84230736 C41.0810051,7.51806897 41.453944,8.42357595 41.453944,9.55885545 C41.453944,10.6806197 41.0810051,11.5793692 40.335116,12.2551308 C39.589227,12.9308924 38.6455293,13.2687681 37.5039948,13.2687681 L31.5304262,13.2687681 Z" fill="#FFFFFF"></path>
                <polygon id="Path" fill="#FFFFFF" points="99.7108309 5.82867002 99.7108309 0.638846801 120.919918 0.638846801 120.919918 5.82867002 113.175683 5.82867002 113.175683 28.3314191 107.493982 28.3314191 107.493982 5.82867002"></polygon>
                <polygon id="Path" fill="#FFFFFF" points="124.519625 28.3314191 124.519625 0.638846801 143.335394 0.638846801 143.335394 5.82867002 130.181868 5.82867002 130.181868 11.6469484 143.043525 11.6469484 143.043525 16.8367716 130.181868 16.8367716 130.181868 23.1415959 143.335394 23.1415959 143.335394 28.3314191"></polygon>
                <path d="M147.732874,28.3314191 L147.732874,0.638846801 L160.166458,0.638846801 C162.890575,0.638846801 165.066592,1.47002111 166.694576,3.13239467 C168.32256,4.79476823 169.13654,6.9369004 169.13654,9.55885545 C169.13654,10.7211654 168.967907,11.7956103 168.630635,12.7822222 C168.293363,13.7688342 167.839351,14.5898722 167.268584,15.245361 C166.697816,15.9008497 166.078413,16.4414509 165.410356,16.8671807 C164.742299,17.2929105 164.032094,17.6003775 163.279719,17.7895907 L169.292203,28.3314191 L162.754356,28.3314191 L157.539645,18.4991368 L153.395116,18.4991368 L153.395116,28.3314191 L147.732874,28.3314191 Z M153.395116,13.3093136 L159.368685,13.3093136 C160.51022,13.3093136 161.453917,12.9680591 162.199806,12.2855399 C162.945695,11.6030207 163.318634,10.6806199 163.318634,9.51830996 C163.318634,8.39654568 162.945695,7.50117498 162.199806,6.83217099 C161.453917,6.16316699 160.51022,5.82867002 159.368685,5.82867002 L153.395116,5.82867002 L153.395116,13.3093136 Z" id="Combined-Shape" fill="#FFFFFF"></path>
                <path d="M185.406371,8.10733526 L185.406371,20.8555946 L180.937797,16.5709209 C180.660907,16.305342 180.210784,16.305342 179.933895,16.5709209 C179.79474,16.7043914 179.726582,16.8787201 179.726582,17.0516869 C179.726582,17.2246537 179.79616,17.4003444 179.935315,17.5324529 L185.615103,22.9802262 C185.891993,23.2458051 186.342116,23.2458051 186.619006,22.9802262 L186.617586,22.9802262 L192.297374,17.5324529 C192.574264,17.266874 192.574264,16.8351379 192.297374,16.569559 C192.020485,16.30398 191.570361,16.30398 191.293472,16.569559 L186.968313,20.719357 L186.968313,7.97118421 L191.435466,12.2572198 C191.712356,12.5227988 192.162479,12.5227988 192.439369,12.2572198 C192.716259,11.9916409 192.716259,11.5599049 192.439369,11.2943259 L186.75958,5.84655263 L186.761,5.84655263 C186.484111,5.58097368 186.033987,5.58097368 185.757098,5.84655263 L180.077309,11.2943259 C179.938154,11.4264344 179.868577,11.6021251 179.868577,11.7750919 C179.868577,11.9480587 179.936734,12.1223874 180.075889,12.2558579 C180.352779,12.5214368 180.802902,12.5214368 181.079792,12.2558579 L185.406371,8.10733526 Z M172.074679,14.5054057 C172.074679,12.4510904 172.421675,10.5319562 173.115676,8.74794557 C173.809677,6.96393492 174.766346,5.44687287 175.985713,4.19671389 C177.205079,2.94655491 178.677377,1.96333652 180.402651,1.24702921 C182.127925,0.530721902 183.982891,0.172573622 185.967604,0.172573622 C188.613889,0.172573622 190.990969,0.780749948 193.098917,1.99712085 C195.206864,3.21349174 196.857524,4.91638546 198.050947,7.10585307 C199.244369,9.29532069 199.841071,11.7618136 199.841071,14.5054057 C199.841071,17.2489978 199.244369,19.7154907 198.050947,21.9049583 C196.857524,24.0944259 195.206864,25.7973197 193.098917,27.0136906 C190.990969,28.2300615 188.613889,28.8382378 185.967604,28.8382378 C183.982891,28.8382378 182.127925,28.4800895 180.402651,27.7637822 C178.677377,27.0474749 177.205079,26.0642565 175.985713,24.8140975 C174.766346,23.5639385 173.809677,22.0468765 173.115676,20.2628658 C172.421675,18.4788552 172.074679,16.559721 172.074679,14.5054057 Z" id="Combined-Shape" fill="#18FF6D"></path>
            </g>
        </g>
    </g>
</svg>