<!-- Generated by IcoMoon.io -->
<svg version="1.1" xmlns="http://www.w3.org/2000/svg" width="768" height="768" viewBox="0 0 768 768">
<title></title>
<g id="icomoon-ignore">
</g>
<path d="M384 448h-224c-89.6 0-160 70.4-160 160v64c0 19.2 12.8 32 32 32s32-12.8 32-32v-64c0-54.4 41.6-96 96-96h224c54.4 0 96 41.6 96 96v64c0 19.2 12.8 32 32 32s32-12.8 32-32v-64c0-89.6-70.4-160-160-160z"></path>
<path d="M272 384c89.6 0 160-70.4 160-160s-70.4-160-160-160-160 70.4-160 160 70.4 160 160 160zM272 128c54.4 0 96 41.6 96 96s-41.6 96-96 96-96-41.6-96-96 41.6-96 96-96z"></path>
<path d="M736 320h-64v-64c0-19.2-12.8-32-32-32s-32 12.8-32 32v64h-64c-19.2 0-32 12.8-32 32s12.8 32 32 32h64v64c0 19.2 12.8 32 32 32s32-12.8 32-32v-64h64c19.2 0 32-12.8 32-32s-12.8-32-32-32z"></path>
</svg>
