<!-- Generated by IcoMoon.io -->
<svg version="1.1" xmlns="http://www.w3.org/2000/svg" width="768" height="768" viewBox="0 0 768 768">
<title></title>
<g id="icomoon-ignore">
</g>
<path d="M700.8 307.2c-6.4-12.8-16-19.2-28.8-19.2h-252.8l28.8-220.8c3.2-12.8-6.4-28.8-19.2-32-12.8-6.4-28.8-3.2-38.4 9.6l-320 384c-6.4 9.6-9.6 22.4-3.2 35.2 6.4 9.6 16 16 28.8 16h252.8l-28.8 220.8c-3.2 12.8 6.4 28.8 19.2 32 3.2 3.2 9.6 3.2 12.8 3.2 9.6 0 19.2-3.2 25.6-12.8l320-384c6.4-9.6 9.6-22.4 3.2-32zM396.8 598.4l19.2-147.2c0-9.6-3.2-19.2-6.4-25.6-6.4-6.4-16-9.6-25.6-9.6h-220.8l204.8-246.4-16 147.2c0 9.6 3.2 19.2 6.4 25.6 6.4 6.4 16 9.6 22.4 9.6h220.8l-204.8 246.4z"></path>
</svg>
