<?xml version="1.0" encoding="UTF-8"?>
<svg width="494px" height="324px" viewBox="0 0 494 324" version="1.1" xmlns="http://www.w3.org/2000/svg" xmlns:xlink="http://www.w3.org/1999/xlink">
    <!-- Generator: Sketch 50.2 (55047) - http://www.bohemiancoding.com/sketch -->
    <title>icon-email</title>
    <desc>Created with Sketch.</desc>
    <defs></defs>
    <g id="Page-1" stroke="none" stroke-width="1" fill="none" fill-rule="evenodd">
        <g id="Artboard" transform="translate(-1611.000000, -1534.000000)" fill="#FFFFFF" fill-rule="nonzero">
            <g id="empty-email" transform="translate(1611.000000, 1534.000000)">
                <path d="M444.556,0.218 L48.942,0.218 C21.954,0.218 0,22.171 0,49.16 L0,274.337 C0,301.325 21.954,323.279 48.942,323.279 L444.555,323.279 C471.543,323.279 493.496,301.325 493.496,274.337 L493.496,49.16 C493.497,22.171 471.544,0.218 444.556,0.218 Z M460.87,274.337 C460.87,276.911 460.145,279.261 459.077,281.427 L343.74,166.081 L460.837,48.984 C460.837,49.0273333 460.848,124.145 460.87,274.337 Z M32.628,274.336 L32.628,49.16 C32.628,49.1173333 71.6713333,88.0913333 149.758,166.082 L34.413,281.426 C33.353,279.26 32.628,276.911 32.628,274.336 Z M251.784,211.902 C249.092,214.593 244.406,214.593 241.714,211.902 L62.667,32.846 L430.839,32.846 L251.784,211.902 Z M172.827,189.152 L218.645,234.971 C226.157,242.482 236.138,246.616 246.749,246.616 C257.359,246.616 267.341,242.482 274.853,234.971 L320.673,189.152 L422.163,290.651 L71.327,290.651 L172.827,189.152 Z" id="icon-email"></path>
            </g>
        </g>
    </g>
</svg>